<mxfile host="app.diagrams.net" modified="2021-06-17T06:00:08.757Z" agent="5.0 (Windows NT 10.0; Win64; x64) AppleWebKit/537.36 (KHTML, like Gecko) Chrome/91.0.4472.106 Safari/537.36" etag="f057bus0cp0rm8NIN00g" version="14.7.8" type="github">
  <diagram id="C5RBs43oDa-KdzZeNtuy" name="Page-1">
    <mxGraphModel dx="1303" dy="1120" grid="1" gridSize="10" guides="1" tooltips="1" connect="1" arrows="1" fold="1" page="1" pageScale="1" pageWidth="827" pageHeight="1169" math="0" shadow="0">
      <root>
        <mxCell id="WIyWlLk6GJQsqaUBKTNV-0" />
        <mxCell id="WIyWlLk6GJQsqaUBKTNV-1" parent="WIyWlLk6GJQsqaUBKTNV-0" />
        <mxCell id="3rIbACJ9UXFU00rvkkpQ-0" value="ATM" style="swimlane;fontStyle=1;align=center;verticalAlign=top;childLayout=stackLayout;horizontal=1;startSize=26;horizontalStack=0;resizeParent=1;resizeParentMax=0;resizeLast=0;collapsible=1;marginBottom=0;" vertex="1" parent="WIyWlLk6GJQsqaUBKTNV-1">
          <mxGeometry x="390" y="390" width="230" height="230" as="geometry" />
        </mxCell>
        <mxCell id="3rIbACJ9UXFU00rvkkpQ-1" value="- CardReader cr&#xa;- Keypad kp&#xa;- Screen screen&#xa;- CashDispenser cd&#xa;- DepositSlot ds&#xa;- Printer printer&#xa;- BankManager bm&#xa;- Bank bankNetwork&#xa;- Map&lt;Double,List&lt;Cash&gt;&gt; storedCash&#xa;- boolean userAuthenticated&#xa;- Account currAccount" style="text;strokeColor=none;fillColor=none;align=left;verticalAlign=top;spacingLeft=4;spacingRight=4;overflow=hidden;rotatable=0;points=[[0,0.5],[1,0.5]];portConstraint=eastwest;" vertex="1" parent="3rIbACJ9UXFU00rvkkpQ-0">
          <mxGeometry y="26" width="230" height="144" as="geometry" />
        </mxCell>
        <mxCell id="3rIbACJ9UXFU00rvkkpQ-2" value="" style="line;strokeWidth=1;fillColor=none;align=left;verticalAlign=middle;spacingTop=-1;spacingLeft=3;spacingRight=3;rotatable=0;labelPosition=right;points=[];portConstraint=eastwest;" vertex="1" parent="3rIbACJ9UXFU00rvkkpQ-0">
          <mxGeometry y="170" width="230" height="8" as="geometry" />
        </mxCell>
        <mxCell id="3rIbACJ9UXFU00rvkkpQ-3" value="+ boolean authenticateUser(String pin)&#xa;+ TransactionStatus handleTransaction(Transaction t)&#xa;- void findAccount(Card c)" style="text;strokeColor=none;fillColor=none;align=left;verticalAlign=top;spacingLeft=4;spacingRight=4;overflow=hidden;rotatable=0;points=[[0,0.5],[1,0.5]];portConstraint=eastwest;" vertex="1" parent="3rIbACJ9UXFU00rvkkpQ-0">
          <mxGeometry y="178" width="230" height="52" as="geometry" />
        </mxCell>
        <mxCell id="3rIbACJ9UXFU00rvkkpQ-5" value="CardReader" style="swimlane;fontStyle=1;align=center;verticalAlign=top;childLayout=stackLayout;horizontal=1;startSize=26;horizontalStack=0;resizeParent=1;resizeParentMax=0;resizeLast=0;collapsible=1;marginBottom=0;" vertex="1" parent="WIyWlLk6GJQsqaUBKTNV-1">
          <mxGeometry x="170" y="212" width="190" height="104" as="geometry" />
        </mxCell>
        <mxCell id="3rIbACJ9UXFU00rvkkpQ-6" value="- boolean hasCard" style="text;strokeColor=none;fillColor=none;align=left;verticalAlign=top;spacingLeft=4;spacingRight=4;overflow=hidden;rotatable=0;points=[[0,0.5],[1,0.5]];portConstraint=eastwest;" vertex="1" parent="3rIbACJ9UXFU00rvkkpQ-5">
          <mxGeometry y="26" width="190" height="44" as="geometry" />
        </mxCell>
        <mxCell id="3rIbACJ9UXFU00rvkkpQ-7" value="" style="line;strokeWidth=1;fillColor=none;align=left;verticalAlign=middle;spacingTop=-1;spacingLeft=3;spacingRight=3;rotatable=0;labelPosition=right;points=[];portConstraint=eastwest;" vertex="1" parent="3rIbACJ9UXFU00rvkkpQ-5">
          <mxGeometry y="70" width="190" height="8" as="geometry" />
        </mxCell>
        <mxCell id="3rIbACJ9UXFU00rvkkpQ-8" value="+ boolean verifyPin(String pin)" style="text;strokeColor=none;fillColor=none;align=left;verticalAlign=top;spacingLeft=4;spacingRight=4;overflow=hidden;rotatable=0;points=[[0,0.5],[1,0.5]];portConstraint=eastwest;" vertex="1" parent="3rIbACJ9UXFU00rvkkpQ-5">
          <mxGeometry y="78" width="190" height="26" as="geometry" />
        </mxCell>
        <mxCell id="3rIbACJ9UXFU00rvkkpQ-9" value="Keypad" style="swimlane;fontStyle=1;align=center;verticalAlign=top;childLayout=stackLayout;horizontal=1;startSize=26;horizontalStack=0;resizeParent=1;resizeParentMax=0;resizeLast=0;collapsible=1;marginBottom=0;" vertex="1" parent="WIyWlLk6GJQsqaUBKTNV-1">
          <mxGeometry x="170" y="330" width="160" height="86" as="geometry" />
        </mxCell>
        <mxCell id="3rIbACJ9UXFU00rvkkpQ-10" value="+ field: type" style="text;strokeColor=none;fillColor=none;align=left;verticalAlign=top;spacingLeft=4;spacingRight=4;overflow=hidden;rotatable=0;points=[[0,0.5],[1,0.5]];portConstraint=eastwest;" vertex="1" parent="3rIbACJ9UXFU00rvkkpQ-9">
          <mxGeometry y="26" width="160" height="26" as="geometry" />
        </mxCell>
        <mxCell id="3rIbACJ9UXFU00rvkkpQ-11" value="" style="line;strokeWidth=1;fillColor=none;align=left;verticalAlign=middle;spacingTop=-1;spacingLeft=3;spacingRight=3;rotatable=0;labelPosition=right;points=[];portConstraint=eastwest;" vertex="1" parent="3rIbACJ9UXFU00rvkkpQ-9">
          <mxGeometry y="52" width="160" height="8" as="geometry" />
        </mxCell>
        <mxCell id="3rIbACJ9UXFU00rvkkpQ-12" value="+ method(type): type" style="text;strokeColor=none;fillColor=none;align=left;verticalAlign=top;spacingLeft=4;spacingRight=4;overflow=hidden;rotatable=0;points=[[0,0.5],[1,0.5]];portConstraint=eastwest;" vertex="1" parent="3rIbACJ9UXFU00rvkkpQ-9">
          <mxGeometry y="60" width="160" height="26" as="geometry" />
        </mxCell>
        <mxCell id="3rIbACJ9UXFU00rvkkpQ-13" value="Screen" style="swimlane;fontStyle=1;align=center;verticalAlign=top;childLayout=stackLayout;horizontal=1;startSize=26;horizontalStack=0;resizeParent=1;resizeParentMax=0;resizeLast=0;collapsible=1;marginBottom=0;" vertex="1" parent="WIyWlLk6GJQsqaUBKTNV-1">
          <mxGeometry x="170" y="430" width="160" height="86" as="geometry" />
        </mxCell>
        <mxCell id="3rIbACJ9UXFU00rvkkpQ-14" value="+ field: type" style="text;strokeColor=none;fillColor=none;align=left;verticalAlign=top;spacingLeft=4;spacingRight=4;overflow=hidden;rotatable=0;points=[[0,0.5],[1,0.5]];portConstraint=eastwest;" vertex="1" parent="3rIbACJ9UXFU00rvkkpQ-13">
          <mxGeometry y="26" width="160" height="26" as="geometry" />
        </mxCell>
        <mxCell id="3rIbACJ9UXFU00rvkkpQ-15" value="" style="line;strokeWidth=1;fillColor=none;align=left;verticalAlign=middle;spacingTop=-1;spacingLeft=3;spacingRight=3;rotatable=0;labelPosition=right;points=[];portConstraint=eastwest;" vertex="1" parent="3rIbACJ9UXFU00rvkkpQ-13">
          <mxGeometry y="52" width="160" height="8" as="geometry" />
        </mxCell>
        <mxCell id="3rIbACJ9UXFU00rvkkpQ-16" value="+ method(type): type" style="text;strokeColor=none;fillColor=none;align=left;verticalAlign=top;spacingLeft=4;spacingRight=4;overflow=hidden;rotatable=0;points=[[0,0.5],[1,0.5]];portConstraint=eastwest;" vertex="1" parent="3rIbACJ9UXFU00rvkkpQ-13">
          <mxGeometry y="60" width="160" height="26" as="geometry" />
        </mxCell>
        <mxCell id="3rIbACJ9UXFU00rvkkpQ-17" value="CashDispenser" style="swimlane;fontStyle=1;align=center;verticalAlign=top;childLayout=stackLayout;horizontal=1;startSize=26;horizontalStack=0;resizeParent=1;resizeParentMax=0;resizeLast=0;collapsible=1;marginBottom=0;" vertex="1" parent="WIyWlLk6GJQsqaUBKTNV-1">
          <mxGeometry x="170" y="530" width="160" height="86" as="geometry" />
        </mxCell>
        <mxCell id="3rIbACJ9UXFU00rvkkpQ-18" value="+ field: type" style="text;strokeColor=none;fillColor=none;align=left;verticalAlign=top;spacingLeft=4;spacingRight=4;overflow=hidden;rotatable=0;points=[[0,0.5],[1,0.5]];portConstraint=eastwest;" vertex="1" parent="3rIbACJ9UXFU00rvkkpQ-17">
          <mxGeometry y="26" width="160" height="26" as="geometry" />
        </mxCell>
        <mxCell id="3rIbACJ9UXFU00rvkkpQ-19" value="" style="line;strokeWidth=1;fillColor=none;align=left;verticalAlign=middle;spacingTop=-1;spacingLeft=3;spacingRight=3;rotatable=0;labelPosition=right;points=[];portConstraint=eastwest;" vertex="1" parent="3rIbACJ9UXFU00rvkkpQ-17">
          <mxGeometry y="52" width="160" height="8" as="geometry" />
        </mxCell>
        <mxCell id="3rIbACJ9UXFU00rvkkpQ-20" value="+ method(type): type" style="text;strokeColor=none;fillColor=none;align=left;verticalAlign=top;spacingLeft=4;spacingRight=4;overflow=hidden;rotatable=0;points=[[0,0.5],[1,0.5]];portConstraint=eastwest;" vertex="1" parent="3rIbACJ9UXFU00rvkkpQ-17">
          <mxGeometry y="60" width="160" height="26" as="geometry" />
        </mxCell>
        <mxCell id="3rIbACJ9UXFU00rvkkpQ-21" value="DepositSlot" style="swimlane;fontStyle=1;align=center;verticalAlign=top;childLayout=stackLayout;horizontal=1;startSize=26;horizontalStack=0;resizeParent=1;resizeParentMax=0;resizeLast=0;collapsible=1;marginBottom=0;" vertex="1" parent="WIyWlLk6GJQsqaUBKTNV-1">
          <mxGeometry x="170" y="630" width="160" height="86" as="geometry" />
        </mxCell>
        <mxCell id="3rIbACJ9UXFU00rvkkpQ-22" value="+ field: type" style="text;strokeColor=none;fillColor=none;align=left;verticalAlign=top;spacingLeft=4;spacingRight=4;overflow=hidden;rotatable=0;points=[[0,0.5],[1,0.5]];portConstraint=eastwest;" vertex="1" parent="3rIbACJ9UXFU00rvkkpQ-21">
          <mxGeometry y="26" width="160" height="26" as="geometry" />
        </mxCell>
        <mxCell id="3rIbACJ9UXFU00rvkkpQ-23" value="" style="line;strokeWidth=1;fillColor=none;align=left;verticalAlign=middle;spacingTop=-1;spacingLeft=3;spacingRight=3;rotatable=0;labelPosition=right;points=[];portConstraint=eastwest;" vertex="1" parent="3rIbACJ9UXFU00rvkkpQ-21">
          <mxGeometry y="52" width="160" height="8" as="geometry" />
        </mxCell>
        <mxCell id="3rIbACJ9UXFU00rvkkpQ-24" value="+ method(type): type" style="text;strokeColor=none;fillColor=none;align=left;verticalAlign=top;spacingLeft=4;spacingRight=4;overflow=hidden;rotatable=0;points=[[0,0.5],[1,0.5]];portConstraint=eastwest;" vertex="1" parent="3rIbACJ9UXFU00rvkkpQ-21">
          <mxGeometry y="60" width="160" height="26" as="geometry" />
        </mxCell>
        <mxCell id="3rIbACJ9UXFU00rvkkpQ-25" value="Printer" style="swimlane;fontStyle=1;align=center;verticalAlign=top;childLayout=stackLayout;horizontal=1;startSize=26;horizontalStack=0;resizeParent=1;resizeParentMax=0;resizeLast=0;collapsible=1;marginBottom=0;" vertex="1" parent="WIyWlLk6GJQsqaUBKTNV-1">
          <mxGeometry x="170" y="730" width="160" height="86" as="geometry" />
        </mxCell>
        <mxCell id="3rIbACJ9UXFU00rvkkpQ-26" value="+ field: type" style="text;strokeColor=none;fillColor=none;align=left;verticalAlign=top;spacingLeft=4;spacingRight=4;overflow=hidden;rotatable=0;points=[[0,0.5],[1,0.5]];portConstraint=eastwest;" vertex="1" parent="3rIbACJ9UXFU00rvkkpQ-25">
          <mxGeometry y="26" width="160" height="26" as="geometry" />
        </mxCell>
        <mxCell id="3rIbACJ9UXFU00rvkkpQ-27" value="" style="line;strokeWidth=1;fillColor=none;align=left;verticalAlign=middle;spacingTop=-1;spacingLeft=3;spacingRight=3;rotatable=0;labelPosition=right;points=[];portConstraint=eastwest;" vertex="1" parent="3rIbACJ9UXFU00rvkkpQ-25">
          <mxGeometry y="52" width="160" height="8" as="geometry" />
        </mxCell>
        <mxCell id="3rIbACJ9UXFU00rvkkpQ-28" value="+ method(type): type" style="text;strokeColor=none;fillColor=none;align=left;verticalAlign=top;spacingLeft=4;spacingRight=4;overflow=hidden;rotatable=0;points=[[0,0.5],[1,0.5]];portConstraint=eastwest;" vertex="1" parent="3rIbACJ9UXFU00rvkkpQ-25">
          <mxGeometry y="60" width="160" height="26" as="geometry" />
        </mxCell>
        <mxCell id="3rIbACJ9UXFU00rvkkpQ-33" value="Account" style="swimlane;fontStyle=1;align=center;verticalAlign=top;childLayout=stackLayout;horizontal=1;startSize=26;horizontalStack=0;resizeParent=1;resizeParentMax=0;resizeLast=0;collapsible=1;marginBottom=0;" vertex="1" parent="WIyWlLk6GJQsqaUBKTNV-1">
          <mxGeometry x="400" y="644" width="200" height="114" as="geometry" />
        </mxCell>
        <mxCell id="3rIbACJ9UXFU00rvkkpQ-34" value="- int accountNumber&#xa;- float Balance&#xa;- String cardNumber" style="text;strokeColor=none;fillColor=none;align=left;verticalAlign=top;spacingLeft=4;spacingRight=4;overflow=hidden;rotatable=0;points=[[0,0.5],[1,0.5]];portConstraint=eastwest;" vertex="1" parent="3rIbACJ9UXFU00rvkkpQ-33">
          <mxGeometry y="26" width="200" height="54" as="geometry" />
        </mxCell>
        <mxCell id="3rIbACJ9UXFU00rvkkpQ-35" value="" style="line;strokeWidth=1;fillColor=none;align=left;verticalAlign=middle;spacingTop=-1;spacingLeft=3;spacingRight=3;rotatable=0;labelPosition=right;points=[];portConstraint=eastwest;" vertex="1" parent="3rIbACJ9UXFU00rvkkpQ-33">
          <mxGeometry y="80" width="200" height="8" as="geometry" />
        </mxCell>
        <mxCell id="3rIbACJ9UXFU00rvkkpQ-36" value="+ void changeBalance(float value)" style="text;strokeColor=none;fillColor=none;align=left;verticalAlign=top;spacingLeft=4;spacingRight=4;overflow=hidden;rotatable=0;points=[[0,0.5],[1,0.5]];portConstraint=eastwest;" vertex="1" parent="3rIbACJ9UXFU00rvkkpQ-33">
          <mxGeometry y="88" width="200" height="26" as="geometry" />
        </mxCell>
        <mxCell id="3rIbACJ9UXFU00rvkkpQ-37" value="Checking" style="swimlane;fontStyle=1;align=center;verticalAlign=top;childLayout=stackLayout;horizontal=1;startSize=26;horizontalStack=0;resizeParent=1;resizeParentMax=0;resizeLast=0;collapsible=1;marginBottom=0;" vertex="1" parent="WIyWlLk6GJQsqaUBKTNV-1">
          <mxGeometry x="350" y="816" width="160" height="86" as="geometry" />
        </mxCell>
        <mxCell id="3rIbACJ9UXFU00rvkkpQ-38" value="+ field: type" style="text;strokeColor=none;fillColor=none;align=left;verticalAlign=top;spacingLeft=4;spacingRight=4;overflow=hidden;rotatable=0;points=[[0,0.5],[1,0.5]];portConstraint=eastwest;" vertex="1" parent="3rIbACJ9UXFU00rvkkpQ-37">
          <mxGeometry y="26" width="160" height="26" as="geometry" />
        </mxCell>
        <mxCell id="3rIbACJ9UXFU00rvkkpQ-39" value="" style="line;strokeWidth=1;fillColor=none;align=left;verticalAlign=middle;spacingTop=-1;spacingLeft=3;spacingRight=3;rotatable=0;labelPosition=right;points=[];portConstraint=eastwest;" vertex="1" parent="3rIbACJ9UXFU00rvkkpQ-37">
          <mxGeometry y="52" width="160" height="8" as="geometry" />
        </mxCell>
        <mxCell id="3rIbACJ9UXFU00rvkkpQ-40" value="+ method(type): type" style="text;strokeColor=none;fillColor=none;align=left;verticalAlign=top;spacingLeft=4;spacingRight=4;overflow=hidden;rotatable=0;points=[[0,0.5],[1,0.5]];portConstraint=eastwest;" vertex="1" parent="3rIbACJ9UXFU00rvkkpQ-37">
          <mxGeometry y="60" width="160" height="26" as="geometry" />
        </mxCell>
        <mxCell id="3rIbACJ9UXFU00rvkkpQ-41" value="Saving" style="swimlane;fontStyle=1;align=center;verticalAlign=top;childLayout=stackLayout;horizontal=1;startSize=26;horizontalStack=0;resizeParent=1;resizeParentMax=0;resizeLast=0;collapsible=1;marginBottom=0;" vertex="1" parent="WIyWlLk6GJQsqaUBKTNV-1">
          <mxGeometry x="530" y="816" width="160" height="86" as="geometry" />
        </mxCell>
        <mxCell id="3rIbACJ9UXFU00rvkkpQ-42" value="+ field: type" style="text;strokeColor=none;fillColor=none;align=left;verticalAlign=top;spacingLeft=4;spacingRight=4;overflow=hidden;rotatable=0;points=[[0,0.5],[1,0.5]];portConstraint=eastwest;" vertex="1" parent="3rIbACJ9UXFU00rvkkpQ-41">
          <mxGeometry y="26" width="160" height="26" as="geometry" />
        </mxCell>
        <mxCell id="3rIbACJ9UXFU00rvkkpQ-43" value="" style="line;strokeWidth=1;fillColor=none;align=left;verticalAlign=middle;spacingTop=-1;spacingLeft=3;spacingRight=3;rotatable=0;labelPosition=right;points=[];portConstraint=eastwest;" vertex="1" parent="3rIbACJ9UXFU00rvkkpQ-41">
          <mxGeometry y="52" width="160" height="8" as="geometry" />
        </mxCell>
        <mxCell id="3rIbACJ9UXFU00rvkkpQ-44" value="+ method(type): type" style="text;strokeColor=none;fillColor=none;align=left;verticalAlign=top;spacingLeft=4;spacingRight=4;overflow=hidden;rotatable=0;points=[[0,0.5],[1,0.5]];portConstraint=eastwest;" vertex="1" parent="3rIbACJ9UXFU00rvkkpQ-41">
          <mxGeometry y="60" width="160" height="26" as="geometry" />
        </mxCell>
        <mxCell id="3rIbACJ9UXFU00rvkkpQ-45" value="UseCase&lt;br&gt;&lt;br&gt;verify pin&lt;br&gt;Balance Inquiry&lt;br&gt;Deposit Cash&lt;br&gt;Deposit check&lt;br&gt;Withdraw cash&lt;br&gt;Transfer funds&lt;br&gt;refill ATM Cash, ink, receipts" style="html=1;" vertex="1" parent="WIyWlLk6GJQsqaUBKTNV-1">
          <mxGeometry x="740" y="796" width="200" height="140" as="geometry" />
        </mxCell>
        <mxCell id="3rIbACJ9UXFU00rvkkpQ-46" value="Card" style="swimlane;fontStyle=1;align=center;verticalAlign=top;childLayout=stackLayout;horizontal=1;startSize=26;horizontalStack=0;resizeParent=1;resizeParentMax=0;resizeLast=0;collapsible=1;marginBottom=0;" vertex="1" parent="WIyWlLk6GJQsqaUBKTNV-1">
          <mxGeometry x="390" y="230" width="160" height="86" as="geometry" />
        </mxCell>
        <mxCell id="3rIbACJ9UXFU00rvkkpQ-47" value="- String cardNumber" style="text;strokeColor=none;fillColor=none;align=left;verticalAlign=top;spacingLeft=4;spacingRight=4;overflow=hidden;rotatable=0;points=[[0,0.5],[1,0.5]];portConstraint=eastwest;" vertex="1" parent="3rIbACJ9UXFU00rvkkpQ-46">
          <mxGeometry y="26" width="160" height="26" as="geometry" />
        </mxCell>
        <mxCell id="3rIbACJ9UXFU00rvkkpQ-48" value="" style="line;strokeWidth=1;fillColor=none;align=left;verticalAlign=middle;spacingTop=-1;spacingLeft=3;spacingRight=3;rotatable=0;labelPosition=right;points=[];portConstraint=eastwest;" vertex="1" parent="3rIbACJ9UXFU00rvkkpQ-46">
          <mxGeometry y="52" width="160" height="8" as="geometry" />
        </mxCell>
        <mxCell id="3rIbACJ9UXFU00rvkkpQ-49" value="+ method(type): type" style="text;strokeColor=none;fillColor=none;align=left;verticalAlign=top;spacingLeft=4;spacingRight=4;overflow=hidden;rotatable=0;points=[[0,0.5],[1,0.5]];portConstraint=eastwest;" vertex="1" parent="3rIbACJ9UXFU00rvkkpQ-46">
          <mxGeometry y="60" width="160" height="26" as="geometry" />
        </mxCell>
        <mxCell id="3rIbACJ9UXFU00rvkkpQ-50" value="BankManager" style="swimlane;fontStyle=1;align=center;verticalAlign=top;childLayout=stackLayout;horizontal=1;startSize=26;horizontalStack=0;resizeParent=1;resizeParentMax=0;resizeLast=0;collapsible=1;marginBottom=0;" vertex="1" parent="WIyWlLk6GJQsqaUBKTNV-1">
          <mxGeometry x="1110" y="540" width="160" height="86" as="geometry" />
        </mxCell>
        <mxCell id="3rIbACJ9UXFU00rvkkpQ-51" value="+ field: type" style="text;strokeColor=none;fillColor=none;align=left;verticalAlign=top;spacingLeft=4;spacingRight=4;overflow=hidden;rotatable=0;points=[[0,0.5],[1,0.5]];portConstraint=eastwest;" vertex="1" parent="3rIbACJ9UXFU00rvkkpQ-50">
          <mxGeometry y="26" width="160" height="26" as="geometry" />
        </mxCell>
        <mxCell id="3rIbACJ9UXFU00rvkkpQ-52" value="" style="line;strokeWidth=1;fillColor=none;align=left;verticalAlign=middle;spacingTop=-1;spacingLeft=3;spacingRight=3;rotatable=0;labelPosition=right;points=[];portConstraint=eastwest;" vertex="1" parent="3rIbACJ9UXFU00rvkkpQ-50">
          <mxGeometry y="52" width="160" height="8" as="geometry" />
        </mxCell>
        <mxCell id="3rIbACJ9UXFU00rvkkpQ-53" value="+ method(type): type" style="text;strokeColor=none;fillColor=none;align=left;verticalAlign=top;spacingLeft=4;spacingRight=4;overflow=hidden;rotatable=0;points=[[0,0.5],[1,0.5]];portConstraint=eastwest;" vertex="1" parent="3rIbACJ9UXFU00rvkkpQ-50">
          <mxGeometry y="60" width="160" height="26" as="geometry" />
        </mxCell>
        <mxCell id="3rIbACJ9UXFU00rvkkpQ-54" value="Customer" style="swimlane;fontStyle=1;align=center;verticalAlign=top;childLayout=stackLayout;horizontal=1;startSize=26;horizontalStack=0;resizeParent=1;resizeParentMax=0;resizeLast=0;collapsible=1;marginBottom=0;" vertex="1" parent="WIyWlLk6GJQsqaUBKTNV-1">
          <mxGeometry x="1110" y="640" width="160" height="86" as="geometry" />
        </mxCell>
        <mxCell id="3rIbACJ9UXFU00rvkkpQ-55" value="+ field: type" style="text;strokeColor=none;fillColor=none;align=left;verticalAlign=top;spacingLeft=4;spacingRight=4;overflow=hidden;rotatable=0;points=[[0,0.5],[1,0.5]];portConstraint=eastwest;" vertex="1" parent="3rIbACJ9UXFU00rvkkpQ-54">
          <mxGeometry y="26" width="160" height="26" as="geometry" />
        </mxCell>
        <mxCell id="3rIbACJ9UXFU00rvkkpQ-56" value="" style="line;strokeWidth=1;fillColor=none;align=left;verticalAlign=middle;spacingTop=-1;spacingLeft=3;spacingRight=3;rotatable=0;labelPosition=right;points=[];portConstraint=eastwest;" vertex="1" parent="3rIbACJ9UXFU00rvkkpQ-54">
          <mxGeometry y="52" width="160" height="8" as="geometry" />
        </mxCell>
        <mxCell id="3rIbACJ9UXFU00rvkkpQ-57" value="+ method(type): type" style="text;strokeColor=none;fillColor=none;align=left;verticalAlign=top;spacingLeft=4;spacingRight=4;overflow=hidden;rotatable=0;points=[[0,0.5],[1,0.5]];portConstraint=eastwest;" vertex="1" parent="3rIbACJ9UXFU00rvkkpQ-54">
          <mxGeometry y="60" width="160" height="26" as="geometry" />
        </mxCell>
        <mxCell id="3rIbACJ9UXFU00rvkkpQ-58" value="Operator" style="swimlane;fontStyle=1;align=center;verticalAlign=top;childLayout=stackLayout;horizontal=1;startSize=26;horizontalStack=0;resizeParent=1;resizeParentMax=0;resizeLast=0;collapsible=1;marginBottom=0;" vertex="1" parent="WIyWlLk6GJQsqaUBKTNV-1">
          <mxGeometry x="1110" y="740" width="160" height="86" as="geometry" />
        </mxCell>
        <mxCell id="3rIbACJ9UXFU00rvkkpQ-59" value="+ field: type" style="text;strokeColor=none;fillColor=none;align=left;verticalAlign=top;spacingLeft=4;spacingRight=4;overflow=hidden;rotatable=0;points=[[0,0.5],[1,0.5]];portConstraint=eastwest;" vertex="1" parent="3rIbACJ9UXFU00rvkkpQ-58">
          <mxGeometry y="26" width="160" height="26" as="geometry" />
        </mxCell>
        <mxCell id="3rIbACJ9UXFU00rvkkpQ-60" value="" style="line;strokeWidth=1;fillColor=none;align=left;verticalAlign=middle;spacingTop=-1;spacingLeft=3;spacingRight=3;rotatable=0;labelPosition=right;points=[];portConstraint=eastwest;" vertex="1" parent="3rIbACJ9UXFU00rvkkpQ-58">
          <mxGeometry y="52" width="160" height="8" as="geometry" />
        </mxCell>
        <mxCell id="3rIbACJ9UXFU00rvkkpQ-61" value="+ method(type): type" style="text;strokeColor=none;fillColor=none;align=left;verticalAlign=top;spacingLeft=4;spacingRight=4;overflow=hidden;rotatable=0;points=[[0,0.5],[1,0.5]];portConstraint=eastwest;" vertex="1" parent="3rIbACJ9UXFU00rvkkpQ-58">
          <mxGeometry y="60" width="160" height="26" as="geometry" />
        </mxCell>
        <mxCell id="3rIbACJ9UXFU00rvkkpQ-62" value="Receipt" style="swimlane;fontStyle=1;align=center;verticalAlign=top;childLayout=stackLayout;horizontal=1;startSize=26;horizontalStack=0;resizeParent=1;resizeParentMax=0;resizeLast=0;collapsible=1;marginBottom=0;" vertex="1" parent="WIyWlLk6GJQsqaUBKTNV-1">
          <mxGeometry x="920" y="697" width="160" height="86" as="geometry" />
        </mxCell>
        <mxCell id="3rIbACJ9UXFU00rvkkpQ-63" value="+ field: type" style="text;strokeColor=none;fillColor=none;align=left;verticalAlign=top;spacingLeft=4;spacingRight=4;overflow=hidden;rotatable=0;points=[[0,0.5],[1,0.5]];portConstraint=eastwest;" vertex="1" parent="3rIbACJ9UXFU00rvkkpQ-62">
          <mxGeometry y="26" width="160" height="26" as="geometry" />
        </mxCell>
        <mxCell id="3rIbACJ9UXFU00rvkkpQ-64" value="" style="line;strokeWidth=1;fillColor=none;align=left;verticalAlign=middle;spacingTop=-1;spacingLeft=3;spacingRight=3;rotatable=0;labelPosition=right;points=[];portConstraint=eastwest;" vertex="1" parent="3rIbACJ9UXFU00rvkkpQ-62">
          <mxGeometry y="52" width="160" height="8" as="geometry" />
        </mxCell>
        <mxCell id="3rIbACJ9UXFU00rvkkpQ-65" value="+ method(type): type" style="text;strokeColor=none;fillColor=none;align=left;verticalAlign=top;spacingLeft=4;spacingRight=4;overflow=hidden;rotatable=0;points=[[0,0.5],[1,0.5]];portConstraint=eastwest;" vertex="1" parent="3rIbACJ9UXFU00rvkkpQ-62">
          <mxGeometry y="60" width="160" height="26" as="geometry" />
        </mxCell>
        <mxCell id="3rIbACJ9UXFU00rvkkpQ-66" value="Cash" style="swimlane;fontStyle=1;align=center;verticalAlign=top;childLayout=stackLayout;horizontal=1;startSize=26;horizontalStack=0;resizeParent=1;resizeParentMax=0;resizeLast=0;collapsible=1;marginBottom=0;" vertex="1" parent="WIyWlLk6GJQsqaUBKTNV-1">
          <mxGeometry x="1081" y="140" width="160" height="86" as="geometry" />
        </mxCell>
        <mxCell id="3rIbACJ9UXFU00rvkkpQ-67" value="- float value" style="text;strokeColor=none;fillColor=none;align=left;verticalAlign=top;spacingLeft=4;spacingRight=4;overflow=hidden;rotatable=0;points=[[0,0.5],[1,0.5]];portConstraint=eastwest;" vertex="1" parent="3rIbACJ9UXFU00rvkkpQ-66">
          <mxGeometry y="26" width="160" height="26" as="geometry" />
        </mxCell>
        <mxCell id="3rIbACJ9UXFU00rvkkpQ-68" value="" style="line;strokeWidth=1;fillColor=none;align=left;verticalAlign=middle;spacingTop=-1;spacingLeft=3;spacingRight=3;rotatable=0;labelPosition=right;points=[];portConstraint=eastwest;" vertex="1" parent="3rIbACJ9UXFU00rvkkpQ-66">
          <mxGeometry y="52" width="160" height="8" as="geometry" />
        </mxCell>
        <mxCell id="3rIbACJ9UXFU00rvkkpQ-69" value="+ method(type): type" style="text;strokeColor=none;fillColor=none;align=left;verticalAlign=top;spacingLeft=4;spacingRight=4;overflow=hidden;rotatable=0;points=[[0,0.5],[1,0.5]];portConstraint=eastwest;" vertex="1" parent="3rIbACJ9UXFU00rvkkpQ-66">
          <mxGeometry y="60" width="160" height="26" as="geometry" />
        </mxCell>
        <mxCell id="3rIbACJ9UXFU00rvkkpQ-70" value="Check" style="swimlane;fontStyle=1;align=center;verticalAlign=top;childLayout=stackLayout;horizontal=1;startSize=26;horizontalStack=0;resizeParent=1;resizeParentMax=0;resizeLast=0;collapsible=1;marginBottom=0;" vertex="1" parent="WIyWlLk6GJQsqaUBKTNV-1">
          <mxGeometry x="1080" y="244" width="160" height="86" as="geometry" />
        </mxCell>
        <mxCell id="3rIbACJ9UXFU00rvkkpQ-71" value="- float value" style="text;strokeColor=none;fillColor=none;align=left;verticalAlign=top;spacingLeft=4;spacingRight=4;overflow=hidden;rotatable=0;points=[[0,0.5],[1,0.5]];portConstraint=eastwest;" vertex="1" parent="3rIbACJ9UXFU00rvkkpQ-70">
          <mxGeometry y="26" width="160" height="26" as="geometry" />
        </mxCell>
        <mxCell id="3rIbACJ9UXFU00rvkkpQ-72" value="" style="line;strokeWidth=1;fillColor=none;align=left;verticalAlign=middle;spacingTop=-1;spacingLeft=3;spacingRight=3;rotatable=0;labelPosition=right;points=[];portConstraint=eastwest;" vertex="1" parent="3rIbACJ9UXFU00rvkkpQ-70">
          <mxGeometry y="52" width="160" height="8" as="geometry" />
        </mxCell>
        <mxCell id="3rIbACJ9UXFU00rvkkpQ-73" value="+ method(type): type" style="text;strokeColor=none;fillColor=none;align=left;verticalAlign=top;spacingLeft=4;spacingRight=4;overflow=hidden;rotatable=0;points=[[0,0.5],[1,0.5]];portConstraint=eastwest;" vertex="1" parent="3rIbACJ9UXFU00rvkkpQ-70">
          <mxGeometry y="60" width="160" height="26" as="geometry" />
        </mxCell>
        <mxCell id="3rIbACJ9UXFU00rvkkpQ-74" value="Transaction" style="swimlane;fontStyle=1;align=center;verticalAlign=top;childLayout=stackLayout;horizontal=1;startSize=26;horizontalStack=0;resizeParent=1;resizeParentMax=0;resizeLast=0;collapsible=1;marginBottom=0;" vertex="1" parent="WIyWlLk6GJQsqaUBKTNV-1">
          <mxGeometry x="680" y="160" width="160" height="112" as="geometry" />
        </mxCell>
        <mxCell id="3rIbACJ9UXFU00rvkkpQ-75" value="- int transactionId&#xa;- Date creationDate" style="text;strokeColor=none;fillColor=none;align=left;verticalAlign=top;spacingLeft=4;spacingRight=4;overflow=hidden;rotatable=0;points=[[0,0.5],[1,0.5]];portConstraint=eastwest;" vertex="1" parent="3rIbACJ9UXFU00rvkkpQ-74">
          <mxGeometry y="26" width="160" height="52" as="geometry" />
        </mxCell>
        <mxCell id="3rIbACJ9UXFU00rvkkpQ-76" value="" style="line;strokeWidth=1;fillColor=none;align=left;verticalAlign=middle;spacingTop=-1;spacingLeft=3;spacingRight=3;rotatable=0;labelPosition=right;points=[];portConstraint=eastwest;" vertex="1" parent="3rIbACJ9UXFU00rvkkpQ-74">
          <mxGeometry y="78" width="160" height="8" as="geometry" />
        </mxCell>
        <mxCell id="3rIbACJ9UXFU00rvkkpQ-77" value="+ boolean saveTransaction()" style="text;strokeColor=none;fillColor=none;align=left;verticalAlign=top;spacingLeft=4;spacingRight=4;overflow=hidden;rotatable=0;points=[[0,0.5],[1,0.5]];portConstraint=eastwest;" vertex="1" parent="3rIbACJ9UXFU00rvkkpQ-74">
          <mxGeometry y="86" width="160" height="26" as="geometry" />
        </mxCell>
        <mxCell id="3rIbACJ9UXFU00rvkkpQ-78" value="BalanceInquiry" style="swimlane;fontStyle=1;align=center;verticalAlign=top;childLayout=stackLayout;horizontal=1;startSize=26;horizontalStack=0;resizeParent=1;resizeParentMax=0;resizeLast=0;collapsible=1;marginBottom=0;" vertex="1" parent="WIyWlLk6GJQsqaUBKTNV-1">
          <mxGeometry x="900" y="70" width="160" height="86" as="geometry" />
        </mxCell>
        <mxCell id="3rIbACJ9UXFU00rvkkpQ-79" value="- String accountId    " style="text;strokeColor=none;fillColor=none;align=left;verticalAlign=top;spacingLeft=4;spacingRight=4;overflow=hidden;rotatable=0;points=[[0,0.5],[1,0.5]];portConstraint=eastwest;" vertex="1" parent="3rIbACJ9UXFU00rvkkpQ-78">
          <mxGeometry y="26" width="160" height="26" as="geometry" />
        </mxCell>
        <mxCell id="3rIbACJ9UXFU00rvkkpQ-80" value="" style="line;strokeWidth=1;fillColor=none;align=left;verticalAlign=middle;spacingTop=-1;spacingLeft=3;spacingRight=3;rotatable=0;labelPosition=right;points=[];portConstraint=eastwest;" vertex="1" parent="3rIbACJ9UXFU00rvkkpQ-78">
          <mxGeometry y="52" width="160" height="8" as="geometry" />
        </mxCell>
        <mxCell id="3rIbACJ9UXFU00rvkkpQ-81" value="+ String getAccount()" style="text;strokeColor=none;fillColor=none;align=left;verticalAlign=top;spacingLeft=4;spacingRight=4;overflow=hidden;rotatable=0;points=[[0,0.5],[1,0.5]];portConstraint=eastwest;" vertex="1" parent="3rIbACJ9UXFU00rvkkpQ-78">
          <mxGeometry y="60" width="160" height="26" as="geometry" />
        </mxCell>
        <mxCell id="3rIbACJ9UXFU00rvkkpQ-82" value="Bank" style="swimlane;fontStyle=1;align=center;verticalAlign=top;childLayout=stackLayout;horizontal=1;startSize=26;horizontalStack=0;resizeParent=1;resizeParentMax=0;resizeLast=0;collapsible=1;marginBottom=0;" vertex="1" parent="WIyWlLk6GJQsqaUBKTNV-1">
          <mxGeometry x="640" y="640" width="230" height="86" as="geometry" />
        </mxCell>
        <mxCell id="3rIbACJ9UXFU00rvkkpQ-83" value="-  List&lt;Account&gt; accounts" style="text;strokeColor=none;fillColor=none;align=left;verticalAlign=top;spacingLeft=4;spacingRight=4;overflow=hidden;rotatable=0;points=[[0,0.5],[1,0.5]];portConstraint=eastwest;" vertex="1" parent="3rIbACJ9UXFU00rvkkpQ-82">
          <mxGeometry y="26" width="230" height="26" as="geometry" />
        </mxCell>
        <mxCell id="3rIbACJ9UXFU00rvkkpQ-84" value="" style="line;strokeWidth=1;fillColor=none;align=left;verticalAlign=middle;spacingTop=-1;spacingLeft=3;spacingRight=3;rotatable=0;labelPosition=right;points=[];portConstraint=eastwest;" vertex="1" parent="3rIbACJ9UXFU00rvkkpQ-82">
          <mxGeometry y="52" width="230" height="8" as="geometry" />
        </mxCell>
        <mxCell id="3rIbACJ9UXFU00rvkkpQ-85" value="+ Account findAccount(String accountNumber)" style="text;strokeColor=none;fillColor=none;align=left;verticalAlign=top;spacingLeft=4;spacingRight=4;overflow=hidden;rotatable=0;points=[[0,0.5],[1,0.5]];portConstraint=eastwest;" vertex="1" parent="3rIbACJ9UXFU00rvkkpQ-82">
          <mxGeometry y="60" width="230" height="26" as="geometry" />
        </mxCell>
        <mxCell id="3rIbACJ9UXFU00rvkkpQ-86" value="Deposit" style="swimlane;fontStyle=1;align=center;verticalAlign=top;childLayout=stackLayout;horizontal=1;startSize=26;horizontalStack=0;resizeParent=1;resizeParentMax=0;resizeLast=0;collapsible=1;marginBottom=0;" vertex="1" parent="WIyWlLk6GJQsqaUBKTNV-1">
          <mxGeometry x="900" y="190" width="160" height="130" as="geometry" />
        </mxCell>
        <mxCell id="3rIbACJ9UXFU00rvkkpQ-87" value="- double amount   " style="text;strokeColor=none;fillColor=none;align=left;verticalAlign=top;spacingLeft=4;spacingRight=4;overflow=hidden;rotatable=0;points=[[0,0.5],[1,0.5]];portConstraint=eastwest;" vertex="1" parent="3rIbACJ9UXFU00rvkkpQ-86">
          <mxGeometry y="26" width="160" height="26" as="geometry" />
        </mxCell>
        <mxCell id="3rIbACJ9UXFU00rvkkpQ-88" value="" style="line;strokeWidth=1;fillColor=none;align=left;verticalAlign=middle;spacingTop=-1;spacingLeft=3;spacingRight=3;rotatable=0;labelPosition=right;points=[];portConstraint=eastwest;" vertex="1" parent="3rIbACJ9UXFU00rvkkpQ-86">
          <mxGeometry y="52" width="160" height="8" as="geometry" />
        </mxCell>
        <mxCell id="3rIbACJ9UXFU00rvkkpQ-89" value="+ void setAmount(Cash c)&#xa;+ void setAmount(Check c)&#xa;- boolean verifyCheck(check c)" style="text;strokeColor=none;fillColor=none;align=left;verticalAlign=top;spacingLeft=4;spacingRight=4;overflow=hidden;rotatable=0;points=[[0,0.5],[1,0.5]];portConstraint=eastwest;" vertex="1" parent="3rIbACJ9UXFU00rvkkpQ-86">
          <mxGeometry y="60" width="160" height="70" as="geometry" />
        </mxCell>
        <mxCell id="3rIbACJ9UXFU00rvkkpQ-94" value="Withdraw" style="swimlane;fontStyle=1;align=center;verticalAlign=top;childLayout=stackLayout;horizontal=1;startSize=26;horizontalStack=0;resizeParent=1;resizeParentMax=0;resizeLast=0;collapsible=1;marginBottom=0;" vertex="1" parent="WIyWlLk6GJQsqaUBKTNV-1">
          <mxGeometry x="900" y="344" width="160" height="86" as="geometry" />
        </mxCell>
        <mxCell id="3rIbACJ9UXFU00rvkkpQ-95" value="- double amount    " style="text;strokeColor=none;fillColor=none;align=left;verticalAlign=top;spacingLeft=4;spacingRight=4;overflow=hidden;rotatable=0;points=[[0,0.5],[1,0.5]];portConstraint=eastwest;" vertex="1" parent="3rIbACJ9UXFU00rvkkpQ-94">
          <mxGeometry y="26" width="160" height="26" as="geometry" />
        </mxCell>
        <mxCell id="3rIbACJ9UXFU00rvkkpQ-96" value="" style="line;strokeWidth=1;fillColor=none;align=left;verticalAlign=middle;spacingTop=-1;spacingLeft=3;spacingRight=3;rotatable=0;labelPosition=right;points=[];portConstraint=eastwest;" vertex="1" parent="3rIbACJ9UXFU00rvkkpQ-94">
          <mxGeometry y="52" width="160" height="8" as="geometry" />
        </mxCell>
        <mxCell id="3rIbACJ9UXFU00rvkkpQ-97" value="+ double getAmount()" style="text;strokeColor=none;fillColor=none;align=left;verticalAlign=top;spacingLeft=4;spacingRight=4;overflow=hidden;rotatable=0;points=[[0,0.5],[1,0.5]];portConstraint=eastwest;" vertex="1" parent="3rIbACJ9UXFU00rvkkpQ-94">
          <mxGeometry y="60" width="160" height="26" as="geometry" />
        </mxCell>
        <mxCell id="3rIbACJ9UXFU00rvkkpQ-98" value="Transfer" style="swimlane;fontStyle=1;align=center;verticalAlign=top;childLayout=stackLayout;horizontal=1;startSize=26;horizontalStack=0;resizeParent=1;resizeParentMax=0;resizeLast=0;collapsible=1;marginBottom=0;" vertex="1" parent="WIyWlLk6GJQsqaUBKTNV-1">
          <mxGeometry x="900" y="444" width="160" height="104" as="geometry" />
        </mxCell>
        <mxCell id="3rIbACJ9UXFU00rvkkpQ-99" value="- double amount&#xa;- String destinationAccountNumber    " style="text;strokeColor=none;fillColor=none;align=left;verticalAlign=top;spacingLeft=4;spacingRight=4;overflow=hidden;rotatable=0;points=[[0,0.5],[1,0.5]];portConstraint=eastwest;" vertex="1" parent="3rIbACJ9UXFU00rvkkpQ-98">
          <mxGeometry y="26" width="160" height="44" as="geometry" />
        </mxCell>
        <mxCell id="3rIbACJ9UXFU00rvkkpQ-100" value="" style="line;strokeWidth=1;fillColor=none;align=left;verticalAlign=middle;spacingTop=-1;spacingLeft=3;spacingRight=3;rotatable=0;labelPosition=right;points=[];portConstraint=eastwest;" vertex="1" parent="3rIbACJ9UXFU00rvkkpQ-98">
          <mxGeometry y="70" width="160" height="8" as="geometry" />
        </mxCell>
        <mxCell id="3rIbACJ9UXFU00rvkkpQ-101" value="+ double getAmount()" style="text;strokeColor=none;fillColor=none;align=left;verticalAlign=top;spacingLeft=4;spacingRight=4;overflow=hidden;rotatable=0;points=[[0,0.5],[1,0.5]];portConstraint=eastwest;" vertex="1" parent="3rIbACJ9UXFU00rvkkpQ-98">
          <mxGeometry y="78" width="160" height="26" as="geometry" />
        </mxCell>
        <mxCell id="3rIbACJ9UXFU00rvkkpQ-103" value="extend" style="endArrow=open;endFill=1;endSize=12;html=1;entryX=1;entryY=0.5;entryDx=0;entryDy=0;exitX=0;exitY=0.5;exitDx=0;exitDy=0;" edge="1" parent="WIyWlLk6GJQsqaUBKTNV-1" source="3rIbACJ9UXFU00rvkkpQ-79" target="3rIbACJ9UXFU00rvkkpQ-75">
          <mxGeometry width="160" relative="1" as="geometry">
            <mxPoint x="970" y="350" as="sourcePoint" />
            <mxPoint x="1130" y="350" as="targetPoint" />
          </mxGeometry>
        </mxCell>
        <mxCell id="3rIbACJ9UXFU00rvkkpQ-104" value="extend" style="endArrow=open;endFill=1;endSize=12;html=1;entryX=1;entryY=0.5;entryDx=0;entryDy=0;exitX=-0.025;exitY=0.129;exitDx=0;exitDy=0;exitPerimeter=0;" edge="1" parent="WIyWlLk6GJQsqaUBKTNV-1" source="3rIbACJ9UXFU00rvkkpQ-89" target="3rIbACJ9UXFU00rvkkpQ-75">
          <mxGeometry width="160" relative="1" as="geometry">
            <mxPoint x="910" y="119" as="sourcePoint" />
            <mxPoint x="890" y="222" as="targetPoint" />
          </mxGeometry>
        </mxCell>
        <mxCell id="3rIbACJ9UXFU00rvkkpQ-105" value="extend" style="endArrow=open;endFill=1;endSize=12;html=1;exitX=0;exitY=0.5;exitDx=0;exitDy=0;" edge="1" parent="WIyWlLk6GJQsqaUBKTNV-1" source="3rIbACJ9UXFU00rvkkpQ-95">
          <mxGeometry width="160" relative="1" as="geometry">
            <mxPoint x="920" y="129" as="sourcePoint" />
            <mxPoint x="840" y="210" as="targetPoint" />
          </mxGeometry>
        </mxCell>
        <mxCell id="3rIbACJ9UXFU00rvkkpQ-106" value="extend" style="endArrow=open;endFill=1;endSize=12;html=1;exitX=0;exitY=0.5;exitDx=0;exitDy=0;" edge="1" parent="WIyWlLk6GJQsqaUBKTNV-1" source="3rIbACJ9UXFU00rvkkpQ-99">
          <mxGeometry width="160" relative="1" as="geometry">
            <mxPoint x="930" y="139" as="sourcePoint" />
            <mxPoint x="840" y="210" as="targetPoint" />
          </mxGeometry>
        </mxCell>
        <mxCell id="3rIbACJ9UXFU00rvkkpQ-107" value="extend" style="endArrow=open;endFill=1;endSize=12;html=1;entryX=0.525;entryY=1;entryDx=0;entryDy=0;exitX=0.213;exitY=0.023;exitDx=0;exitDy=0;entryPerimeter=0;exitPerimeter=0;" edge="1" parent="WIyWlLk6GJQsqaUBKTNV-1" source="3rIbACJ9UXFU00rvkkpQ-37" target="3rIbACJ9UXFU00rvkkpQ-36">
          <mxGeometry width="160" relative="1" as="geometry">
            <mxPoint x="940" y="149" as="sourcePoint" />
            <mxPoint x="920" y="252" as="targetPoint" />
          </mxGeometry>
        </mxCell>
        <mxCell id="3rIbACJ9UXFU00rvkkpQ-108" value="extend" style="endArrow=open;endFill=1;endSize=12;html=1;exitX=0.381;exitY=-0.012;exitDx=0;exitDy=0;exitPerimeter=0;" edge="1" parent="WIyWlLk6GJQsqaUBKTNV-1" source="3rIbACJ9UXFU00rvkkpQ-41">
          <mxGeometry width="160" relative="1" as="geometry">
            <mxPoint x="590" y="810" as="sourcePoint" />
            <mxPoint x="500" y="760" as="targetPoint" />
          </mxGeometry>
        </mxCell>
        <mxCell id="3rIbACJ9UXFU00rvkkpQ-109" value="«Enumeration»&lt;br&gt;&lt;b&gt;TransactionType&lt;br&gt;&lt;/b&gt;&lt;br&gt;Balance Inquiry&lt;br&gt;Deposit Cash&lt;br&gt;Deposit check&lt;br&gt;Withdraw cash&lt;br&gt;Transfer funds" style="html=1;" vertex="1" parent="WIyWlLk6GJQsqaUBKTNV-1">
          <mxGeometry x="360" y="20" width="110" height="130" as="geometry" />
        </mxCell>
        <mxCell id="3rIbACJ9UXFU00rvkkpQ-110" value="«Enumeration»&lt;br&gt;&lt;b&gt;TransactionStatus&lt;br&gt;&lt;/b&gt;&lt;br&gt;SUCCESS&lt;br&gt;FAIL&lt;br&gt;" style="html=1;" vertex="1" parent="WIyWlLk6GJQsqaUBKTNV-1">
          <mxGeometry x="500" y="20" width="110" height="130" as="geometry" />
        </mxCell>
      </root>
    </mxGraphModel>
  </diagram>
</mxfile>
